<?xml version="1.0" encoding="UTF-8" standalone="no"?>
<svg
   xmlns:dc="http://purl.org/dc/elements/1.1/"
   xmlns:cc="http://creativecommons.org/ns#"
   xmlns:rdf="http://www.w3.org/1999/02/22-rdf-syntax-ns#"
   xmlns:svg="http://www.w3.org/2000/svg"
   xmlns="http://www.w3.org/2000/svg"
   viewBox="0 0 402.875 60.237499"
   height="60.237499"
   width="402.875"
   xml:space="preserve"
   version="1.1"
   id="svg2"><metadata
     id="metadata8"><rdf:RDF><cc:Work
         rdf:about=""><dc:format>image/svg+xml</dc:format><dc:type
           rdf:resource="http://purl.org/dc/dcmitype/StillImage" /></cc:Work></rdf:RDF></metadata><defs
     id="defs6"><clipPath
       id="clipPath18"
       clipPathUnits="userSpaceOnUse"><path
         id="path20"
         d="M 0,481.895 0,0 l 3222.99,0 0,481.895 -3222.99,0 z" /></clipPath></defs><g
     transform="matrix(1.25,0,0,-1.25,0,60.2375)"
     id="g10"><g
       transform="scale(0.1,0.1)"
       id="g12"><g
         id="g14"><g
           clip-path="url(#clipPath18)"
           id="g16"><path
             id="path22"
             style="fill:#ffffff;fill-opacity:1;fill-rule:nonzero;stroke:none"
             d="M 436.352,469.68 265.828,228.398 95.3008,469.68 0,469.68 0,12.2188 l 87.1992,0 0,297.9962 -3.0234,34.469 3.2031,0.062 178.4491,-253.1913 178.449,253.1913 3.235,-0.062 -3.055,-34.469 0,-297.9962 87.199,0 0,457.4612 -95.304,0" /><path
             id="path24"
             style="fill:#ffffff;fill-opacity:1;fill-rule:nonzero;stroke:none"
             d="m 681.926,12.2188 0,457.4612 327.454,0 0,-70.692 -243.189,0 0,-120.703 205.086,0 0,-70.687 -205.086,0 0,-124.5707 246.449,0 0,-70.8085 -330.714,0" /><path
             id="path26"
             style="fill:#ffffff;fill-opacity:1;fill-rule:nonzero;stroke:none"
             d="m 1873.5,401.105 c -88.29,0 -160.12,-71.902 -160.12,-160.187 0,-88.289 71.83,-160.1289 160.12,-160.1289 88.34,0 160.21,71.8399 160.21,160.1289 0,88.285 -71.87,160.187 -160.21,160.187 z M 1873.5,0 c -132.86,0 -240.92,108.066 -240.92,240.918 0,132.914 108.06,240.977 240.92,240.977 132.89,0 240.97,-108.063 240.97,-240.977 C 2114.47,108.066 2006.39,0 1873.5,0" /><path
             id="path28"
             style="fill:#ffffff;fill-opacity:1;fill-rule:nonzero;stroke:none"
             d="m 2982.01,401.105 c -88.28,0 -160.15,-71.902 -160.15,-160.187 0,-88.289 71.87,-160.1289 160.15,-160.1289 88.34,0 160.2,71.8399 160.2,160.1289 0,88.285 -71.86,160.187 -160.2,160.187 z M 2982.01,0 c -132.85,0 -240.94,108.066 -240.94,240.918 0,132.914 108.09,240.977 240.94,240.977 132.85,0 240.98,-108.063 240.98,-240.977 C 3222.99,108.066 3114.86,0 2982.01,0" /><path
             id="path30"
             style="fill:#ffffff;fill-opacity:1;fill-rule:nonzero;stroke:none"
             d="m 1341.48,0.1875 c -137.21,0 -248.84,107.9965 -248.84,240.7305 0,132.793 111.63,240.793 248.84,240.793 66.45,0 130.49,-24.25 175.76,-66.578 l -50.65,-57.266 c -34.05,29.692 -79.49,46.684 -124.75,46.684 -90.92,0 -164.9,-73.348 -164.9,-163.633 0,-90.469 73.86,-164.1211 164.63,-164.1211 29.45,0 58.02,5.4492 82.63,15.664 9.5,3.9375 18.93,8.5861 27.33,13.6051 l 0.37,0.184 0,91.008 -97.06,0 0,69.785 177.66,0 0,-197.0117 C 1523.19,62.6484 1498.46,44.9922 1479.47,34.6484 1437.99,12.1016 1390.28,0.1875 1341.48,0.1875" /><path
             id="path32"
             style="fill:#ffffff;fill-opacity:1;fill-rule:nonzero;stroke:none"
             d="m 2454.1,0.1875 c -137.22,0 -248.87,107.9965 -248.87,240.7305 0,132.793 111.65,240.793 248.87,240.793 66.47,0 130.47,-24.25 175.76,-66.578 l -50.64,-57.266 c -34.08,29.692 -79.49,46.684 -124.75,46.684 -90.92,0 -164.88,-73.348 -164.88,-163.633 0,-90.469 73.85,-164.1211 164.61,-164.1211 29.39,0 57.99,5.4492 82.64,15.664 9.45,3.9375 18.92,8.5861 27.32,13.6051 l 0.33,0.184 0,91.008 -97.03,0 0,69.785 177.68,0 0,-197.0117 C 2635.78,62.6484 2611.09,44.9922 2592.07,34.6484 2550.59,12.1016 2502.87,0.1875 2454.1,0.1875" /></g></g></g></g></svg>